<?xml version="1.0" encoding="UTF-8"?>
<svg xmlns="http://www.w3.org/2000/svg" xmlns:xlink="http://www.w3.org/1999/xlink" viewBox="0 0 50 50" width="50px" height="50px">
<g id="surface44572453">
<path style=" stroke:none;fill-rule:nonzero;fill:rgb(99.215686%,64.705884%,51.764709%);fill-opacity:1;" d="M 14 3.992188 C 8.488281 3.992188 4 8.480469 4 13.992188 L 4 35.992188 C 4 41.5 8.488281 45.992188 14 45.992188 L 36 45.992188 C 41.511719 45.992188 46 41.5 46 35.992188 L 46 13.992188 C 46 8.480469 41.511719 3.992188 36 3.992188 Z M 14 5.992188 L 36 5.992188 C 40.429688 5.992188 44 9.558594 44 13.992188 L 44 35.992188 C 44 40.421875 40.429688 43.992188 36 43.992188 L 14 43.992188 C 9.570312 43.992188 6 40.421875 6 35.992188 L 6 13.992188 C 6 9.558594 9.570312 5.992188 14 5.992188 Z M 18.050781 11.035156 C 16.003906 10.945312 14.449219 11.722656 13.476562 12.660156 C 12.988281 13.125 12.632812 13.625 12.394531 14.089844 C 12.152344 14.558594 11.996094 14.941406 11.996094 15.441406 C 11.996094 15.398438 11.988281 15.632812 11.980469 15.902344 C 11.972656 16.175781 11.976562 16.542969 12 16.984375 C 12.050781 17.867188 12.199219 19.066406 12.597656 20.484375 C 13.394531 23.320312 15.183594 27.042969 19.070312 30.929688 C 22.957031 34.816406 26.679688 36.605469 29.515625 37.402344 C 30.933594 37.800781 32.132812 37.949219 33.015625 38 C 33.457031 38.023438 33.820312 38.027344 34.09375 38.019531 C 34.367188 38.011719 34.601562 38.003906 34.558594 38.003906 C 35.058594 38.003906 35.441406 37.847656 35.910156 37.609375 C 36.375 37.367188 36.875 37.011719 37.34375 36.527344 C 38.277344 35.550781 39.054688 33.996094 38.964844 31.953125 C 38.921875 30.976562 38.382812 30.113281 37.582031 29.601562 C 36.964844 29.203125 36.003906 28.589844 34.753906 27.789062 C 33.300781 26.859375 31.445312 26.796875 29.929688 27.625 L 30.015625 27.582031 L 28.839844 28.089844 L 28.753906 28.148438 C 28.464844 28.347656 28.109375 28.386719 27.789062 28.253906 C 26.886719 27.875 25.480469 27.132812 24.175781 25.828125 C 22.867188 24.519531 22.125 23.113281 21.746094 22.210938 C 21.613281 21.890625 21.652344 21.535156 21.851562 21.25 L 21.910156 21.164062 L 22.417969 19.984375 L 22.375 20.070312 C 23.203125 18.554688 23.140625 16.699219 22.210938 15.246094 C 21.410156 13.996094 20.796875 13.035156 20.402344 12.417969 C 19.886719 11.617188 19.023438 11.078125 18.050781 11.035156 Z M 17.964844 13.035156 C 18.242188 13.046875 18.53125 13.210938 18.71875 13.496094 C 19.113281 14.113281 19.726562 15.074219 20.527344 16.324219 C 21.058594 17.152344 21.09375 18.242188 20.621094 19.109375 L 20.597656 19.152344 L 20.117188 20.28125 L 20.214844 20.097656 C 19.625 20.9375 19.503906 22.03125 19.902344 22.984375 C 20.351562 24.058594 21.214844 25.695312 22.761719 27.242188 C 24.304688 28.785156 25.941406 29.648438 27.019531 30.097656 C 27.96875 30.496094 29.0625 30.375 29.902344 29.785156 L 29.722656 29.886719 L 30.847656 29.402344 L 30.890625 29.378906 C 31.753906 28.90625 32.847656 28.945312 33.675781 29.476562 L 33.675781 29.472656 C 34.925781 30.273438 35.886719 30.886719 36.503906 31.285156 C 36.789062 31.46875 36.953125 31.757812 36.96875 32.039062 C 37.03125 33.554688 36.503906 34.507812 35.898438 35.144531 C 35.59375 35.460938 35.261719 35.691406 34.992188 35.832031 C 34.71875 35.972656 34.457031 36.003906 34.558594 36.003906 C 34.375 36.003906 34.277344 36.015625 34.046875 36.019531 C 33.816406 36.023438 33.507812 36.027344 33.128906 36.003906 C 32.367188 35.960938 31.320312 35.832031 30.054688 35.476562 C 27.527344 34.769531 24.136719 33.167969 20.484375 29.515625 C 16.832031 25.863281 15.230469 22.472656 14.523438 19.945312 C 14.167969 18.679688 14.039062 17.632812 13.996094 16.871094 C 13.976562 16.492188 13.976562 16.183594 13.980469 15.953125 C 13.984375 15.722656 14 15.625 14 15.445312 C 14 15.542969 14.027344 15.28125 14.167969 15.011719 C 14.308594 14.738281 14.539062 14.40625 14.859375 14.105469 C 15.492188 13.496094 16.445312 12.96875 17.964844 13.035156 Z M 17.964844 13.035156 "/>
</g>
</svg>
